<?xml version="1.0" encoding="iso-8859-1"?>
<!-- Generator: Adobe Illustrator 19.0.0, SVG Export Plug-In . SVG Version: 6.00 Build 0)  -->
<svg version="1.1" id="Capa_1" xmlns="http://www.w3.org/2000/svg" xmlns:xlink="http://www.w3.org/1999/xlink" x="0px" y="0px"
	 viewBox="0 0 512 512" style="enable-background:new 0 0 512 512;" xml:space="preserve">
<g>
	<g transform="translate(0 1)">
		<path style="fill:#C52828;" d="M477.867,110.786c0,13.141-11.691,24.405-35.072,31.915c-24.495,6.976-49.883,10.311-75.349,9.899
			L256,195.266l-12.8-4.864L144.554,152.6c-25.466,0.412-50.854-2.923-75.349-9.899c-23.381-7.509-35.071-18.773-35.071-31.915
			s11.691-28.16,35.072-43.179C99.925,46.445,175.957,25.282,243.2,10.349c4.267-0.939,8.619-1.877,12.8-2.816
			c70.059,15.019,154.113,37.547,186.795,60.075C466.176,82.626,477.867,97.645,477.867,110.786z"/>
		<path style="fill:#F44335;" d="M452.267,110.786c0,13.141-11.691,24.405-35.072,31.915c-24.495,6.976-49.883,10.311-75.349,9.899
			L243.2,190.402L144.554,152.6c-25.466,0.412-50.854-2.923-75.349-9.899c-23.381-7.509-35.071-18.773-35.071-31.915
			s11.691-28.16,35.072-43.179C99.925,46.445,175.957,25.282,243.2,10.349c67.243,14.933,143.275,36.096,173.995,57.259
			C440.576,82.626,452.267,97.645,452.267,110.786z"/>
		<path style="fill:#AD1457;" d="M477.867,233.752c0,25.515-11.691,54.613-35.072,83.797c-15.539,19.058-34.105,35.433-54.955,48.47
			C346.094,392.77,301.959,415.595,256,434.2c-4.181-1.792-8.533-3.584-12.8-5.461C175.957,399.725,99.925,358.68,69.205,317.549
			c-1.451-1.792-2.901-3.669-4.267-5.461c-20.565-27.307-30.805-54.443-30.805-78.336c-0.339-17.426,5.908-34.339,17.493-47.36
			h0.085c5.082-5.721,10.976-10.666,17.493-14.677c19.136-11.085,40.634-17.461,62.72-18.603c4.181-0.341,8.363-0.512,12.629-0.512
			h0.085c10.335-0.037,20.65,0.906,30.806,2.816h161.108c5.868-1.103,11.794-1.872,17.75-2.304c0.129-0.087,0.298-0.087,0.427,0
			c4.267-0.341,8.448-0.512,12.629-0.512h0.085c26.381-0.539,52.416,6.065,75.349,19.115c6.517,4.011,12.411,8.956,17.493,14.677
			h0.085C471.933,199.428,478.176,216.331,477.867,233.752z"/>
		<path style="fill:#E91E63;" d="M452.267,233.752c0,25.515-11.691,54.613-35.072,83.797c-15.539,19.058-34.105,35.433-54.955,48.47
			c-37.761,24.362-77.595,45.35-119.04,62.72C175.957,399.725,99.925,358.68,69.205,317.549c-1.451-1.792-2.901-3.669-4.267-5.461
			c-20.565-27.307-30.805-54.443-30.805-78.336c-0.339-17.426,5.908-34.339,17.493-47.36h0.085
			c5.082-5.721,10.976-10.666,17.493-14.677c19.136-11.085,40.634-17.461,62.72-18.603c6.012,0.432,11.995,1.201,17.921,2.304
			h161.108c10.157-1.91,20.471-2.853,30.806-2.816h0.085c4.181,0,8.363,0.171,12.459,0.512c0.129-0.087,0.298-0.087,0.427,0
			c22.003,1.152,43.416,7.529,62.464,18.603c6.517,4.011,12.411,8.956,17.493,14.677h0.085
			C446.333,199.428,452.576,216.331,452.267,233.752z"/>
		<g>
			<path style="fill:#AD1457;" d="M256,434.2v68.267c-70.059-29.184-154.113-72.875-186.795-116.651
				c-23.381-29.099-35.072-58.283-35.072-83.797v-68.267c0,23.893,10.24,51.029,30.805,78.336c1.365,1.792,2.816,3.669,4.267,5.461
				C101.887,361.325,185.941,405.016,256,434.2z"/>
			<path style="fill:#AD1457;" d="M477.867,233.752v68.267c0,25.515-11.691,54.699-35.072,83.797
				C410.112,429.592,326.059,473.282,256,502.466V434.2c45.959-18.605,90.094-41.43,131.84-68.181
				c20.85-13.037,39.415-29.412,54.955-48.469C466.176,288.365,477.867,259.266,477.867,233.752z"/>
		</g>
		<g>
			<path style="fill:#C52828;" d="M144.554,152.6c-26.381-0.539-52.416,6.065-75.349,19.115
				c-6.517,4.011-12.411,8.956-17.493,14.677h-0.085c-12.032-6.997-17.835-15.616-17.408-25.259h-0.085v-50.347
				c0,13.141,11.691,24.405,35.072,31.915C93.7,149.677,119.088,153.012,144.554,152.6z"/>
			<path style="fill:#C52828;" d="M477.867,110.786v50.347h-0.085c0.427,9.643-5.376,18.261-17.408,25.259h-0.085
				c-5.082-5.721-10.976-10.666-17.493-14.677c-22.933-13.049-48.969-19.654-75.349-19.115c25.466,0.412,50.854-2.923,75.349-9.899
				C466.176,135.192,477.867,123.928,477.867,110.786z"/>
		</g>
		<path style="fill:#F5F5F5;" d="M348.331,306.2h-35.073c-7.555-25.317-30.838-42.668-57.259-42.668s-49.704,17.351-57.259,42.668
			h-35.073c5.947-32.169,28.229-58.914,58.796-70.571c10.475-4.078,21.612-6.19,32.852-6.229h1.367
			c11.241,0.039,22.377,2.151,32.852,6.229C320.102,247.286,342.385,274.03,348.331,306.2z"/>
		<g>
			<polygon style="fill:#00BCD4;" points="247.467,118.466 221.867,161.133 171.435,161.133 170.667,160.109 176.64,154.221 
				213.333,118.466 			"/>
			<polygon style="fill:#00BCD4;" points="341.333,160.109 340.565,161.133 290.133,161.133 264.533,118.466 298.667,118.466 
				335.36,154.221 			"/>
		</g>
		<g>
			<path style="fill:#2296F3;" d="M256,229.4h-0.683c-11.241,0.039-22.377,2.151-32.852,6.229l-41.984-62.805l-9.045-11.691h50.431
				L256,229.4z"/>
			<path style="fill:#2296F3;" d="M340.565,161.133l-9.045,11.691l-41.984,62.805c-10.475-4.078-21.612-6.19-32.853-6.229H256
				l34.133-68.267H340.565z"/>
		</g>
		<polygon style="fill:#00BCD4;" points="290.133,161.133 256,229.4 221.867,161.133 		"/>
		<polygon style="fill:#2296F3;" points="290.133,161.133 221.867,161.133 247.467,118.466 264.533,118.466 		"/>
	</g>
	<g>
		<path d="M256,443.733c-1.127,0.001-2.243-0.221-3.283-0.654c-54.842-22.85-152.508-68.746-190.35-119.425
			c-1.3-1.596-2.817-3.55-4.225-5.413c-37.992-50.5-42.925-102.804-12.892-136.525c0.233-0.254,0.475-0.496,0.725-0.721
			c5.484-6.02,11.784-11.243,18.717-15.517c24.291-13.89,51.89-20.943,79.866-20.413c10.9-0.037,21.779,0.958,32.492,2.971
			c2.994,0.575,5.453,2.703,6.452,5.583c0.999,2.88,0.386,6.074-1.609,8.379c-1.994,2.305-5.067,3.371-8.061,2.797
			c-9.625-1.804-19.399-2.696-29.191-2.662c-24.813-0.556-49.315,5.601-70.917,17.821c-5.809,3.569-11.064,7.968-15.6,13.058
			c-0.227,0.265-0.472,0.514-0.733,0.746c-23.975,27.717-18.642,70.321,14.367,114.2c1.292,1.696,2.692,3.5,4.083,5.225
			C111.858,361.416,211.35,407.158,256,425.95c44.276-18.112,86.815-40.21,127.092-66.021
			c20.046-12.479,37.899-28.175,52.842-46.458c36.417-45.371,43.442-91.046,18.658-119.738c-0.255-0.223-0.495-0.464-0.717-0.721
			c-4.536-5.09-9.791-9.489-15.6-13.058c-21.576-12.21-46.048-18.367-70.833-17.821c-9.82-0.037-19.622,0.855-29.275,2.662
			c-4.628,0.888-9.099-2.143-9.988-6.771c-0.888-4.628,2.143-9.099,6.771-9.988c10.685-2.009,21.536-3.004,32.409-2.971
			c28.004-0.541,55.633,6.513,79.95,20.413c6.942,4.276,13.248,9.506,18.733,15.538c0.249,0.221,0.486,0.456,0.708,0.704
			c31.392,35.296,24.767,89.771-17.3,142.171c-16.058,19.755-35.269,36.721-56.858,50.212
			c-42.22,27.042-86.845,50.13-133.308,68.971C258.243,443.509,257.127,443.733,256,443.733z"/>
		<path d="M367.442,162.133c-3.049,0.015-5.874-1.598-7.411-4.231c-1.537-2.633-1.553-5.886-0.042-8.533
			c1.511-2.648,4.321-4.288,7.369-4.303c24.605,0.407,49.138-2.791,72.817-9.492c17.608-5.654,27.925-13.496,29.05-22.088
			c1.358-10.412-9.95-24.154-31.042-37.7C412.2,57.883,345.933,36.629,256,17.262C166.067,36.629,99.8,57.883,74.05,75.633
			c-21.325,13.7-32.633,27.442-31.275,37.854c1.125,8.592,11.441,16.434,29.041,22.088c23.652,6.707,48.161,9.905,72.742,9.492
			c4.713-0.023,8.552,3.779,8.575,8.492s-3.779,8.552-8.492,8.575h-0.083c-26.357,0.408-52.63-3.067-77.975-10.313
			c-31.058-9.975-39.292-25.146-40.733-36.121c-1.617-12.367,3.792-31.821,38.75-54.271C102.283,35.441,199.583,11.9,254.208,0.187
			c1.181-0.25,2.402-0.25,3.583,0C312.417,11.9,409.717,35.441,447.633,61.583c34.725,22.296,40.133,41.75,38.517,54.117
			c-1.442,10.975-9.675,26.146-40.75,36.125C420.058,159.055,393.792,162.528,367.442,162.133z"/>
		<path d="M51.708,195.925c-1.533-0.001-3.041-0.399-4.375-1.154c-18.608-10.825-22.042-23.925-21.642-33.012
			c0.281-4.673,4.22-8.28,8.9-8.15c2.261,0.099,4.39,1.093,5.918,2.762c1.528,1.669,2.331,3.877,2.232,6.138
			c-0.275,6.308,4.067,12.146,12.917,17.354c3.458,1.828,5.229,5.775,4.295,9.573C59.019,193.234,55.62,195.91,51.708,195.925z"/>
		<path d="M460.375,195.925c-4.005,0.015-7.483-2.754-8.365-6.661c-0.882-3.907,1.068-7.902,4.69-9.61
			c8.608-5.154,12.833-10.921,12.558-17.146c-0.16-3.061,1.334-5.973,3.915-7.628s5.85-1.799,8.566-0.377
			c2.716,1.422,4.46,4.191,4.569,7.255c0.4,9.087-3.033,22.188-21.642,33.012C463.362,195.526,461.882,195.924,460.375,195.925z"/>
		<path d="M256,512c-1.127,0.001-2.243-0.221-3.283-0.654c-54.842-22.85-152.508-68.746-190.35-119.425
			C38.383,362.075,25.6,331.25,25.6,303.016c0-4.713,3.821-8.533,8.533-8.533s8.533,3.82,8.533,8.533
			c0,24.3,11.475,51.429,33.192,78.454c36,48.212,135.492,93.954,180.142,112.746c44.65-18.792,144.133-64.529,179.95-112.504
			c21.908-27.267,33.383-54.396,33.383-78.696c0-4.713,3.821-8.533,8.533-8.533c4.713,0,8.533,3.82,8.533,8.533
			c0,28.233-12.783,59.058-36.958,89.146c-37.65,50.437-135.317,96.333-190.158,119.183C258.243,511.778,257.127,512.001,256,512z"
			/>
		<path d="M256,512c-2.263,0.001-4.434-0.898-6.035-2.499c-1.6-1.6-2.499-3.771-2.499-6.035V435.2c0-4.713,3.821-8.533,8.533-8.533
			c4.713,0,8.533,3.821,8.533,8.533v68.267c0.001,2.263-0.898,4.434-2.499,6.035C260.434,511.102,258.263,512,256,512z"/>
		<path d="M34.133,315.733c-2.263,0.001-4.434-0.898-6.035-2.499c-1.6-1.6-2.499-3.771-2.499-6.035v-76.8
			c0-4.713,3.821-8.533,8.533-8.533c4.713,0,8.533,3.821,8.533,8.533v76.8c0.001,2.263-0.898,4.434-2.499,6.035
			S36.397,315.734,34.133,315.733z"/>
		<path d="M477.867,315.733c-2.263,0.001-4.434-0.898-6.035-2.499s-2.499-3.771-2.499-6.035v-76.8c0-4.713,3.821-8.533,8.533-8.533
			c4.713,0,8.533,3.821,8.533,8.533v76.8c0.001,2.263-0.898,4.434-2.499,6.035C482.301,314.835,480.13,315.734,477.867,315.733z"/>
		<path d="M34.133,170.666c-2.263,0.001-4.434-0.898-6.035-2.499c-1.6-1.6-2.499-3.771-2.499-6.035v-51.2
			c0-4.713,3.821-8.533,8.533-8.533c4.713,0,8.533,3.82,8.533,8.533v51.2c0.001,2.263-0.898,4.434-2.499,6.035
			S36.397,170.667,34.133,170.666z"/>
		<path d="M477.867,170.666c-2.263,0.001-4.434-0.898-6.035-2.499s-2.499-3.771-2.499-6.035v-51.2c0-4.713,3.821-8.533,8.533-8.533
			c4.713,0,8.533,3.82,8.533,8.533v51.2c0.001,2.263-0.898,4.434-2.499,6.035C482.301,169.768,480.13,170.667,477.867,170.666z"/>
		<path d="M348.325,315.733c-4.114-0.006-7.639-2.945-8.383-6.992c-7.502-40.458-42.794-69.808-83.942-69.808
			s-76.44,29.351-83.942,69.808c-0.545,3.004-2.653,5.487-5.529,6.513c-2.875,1.026-6.079,0.437-8.402-1.544
			c-2.323-1.981-3.411-5.051-2.853-8.052c8.988-48.558,51.342-83.792,100.725-83.792s91.737,35.233,100.725,83.792
			c0.456,2.492-0.218,5.058-1.841,7.004C353.262,314.608,350.859,315.733,348.325,315.733z"/>
		<path d="M313.259,315.737c-3.775-0.002-7.1-2.485-8.175-6.104c-6.48-21.698-26.438-36.567-49.083-36.567
			s-42.603,14.869-49.083,36.567c-0.858,2.934-3.221,5.185-6.193,5.899c-2.972,0.714-6.1-0.216-8.198-2.44
			c-2.098-2.224-2.845-5.4-1.959-8.326C199.197,275.831,225.806,256,256,256s56.804,19.832,65.433,48.767
			c0.766,2.582,0.269,5.373-1.34,7.533C318.485,314.458,315.952,315.733,313.259,315.737L313.259,315.737z"/>
		<path d="M366.933,315.733H145.067c-4.713,0-8.533-3.821-8.533-8.533c0-4.713,3.82-8.533,8.533-8.533h221.867
			c4.713,0,8.533,3.821,8.533,8.533C375.467,311.913,371.646,315.733,366.933,315.733z"/>
		<path d="M222.475,245.162c-2.853,0.006-5.518-1.417-7.1-3.792l-41.983-62.804l-9.484-12.246
			c-2.635-3.417-2.306-8.263,0.767-11.292l42.7-41.675c1.596-1.55,3.733-2.419,5.958-2.421H256c4.713,0,8.533,3.821,8.533,8.533
			c0,4.713-3.821,8.533-8.533,8.533h-39.2l-34.758,33.879l5.2,6.733l42.317,63.275c1.751,2.616,1.919,5.984,0.437,8.761
			C228.514,243.425,225.623,245.161,222.475,245.162z"/>
		<path d="M289.525,245.162c-3.148-0.002-6.038-1.738-7.52-4.515c-1.482-2.777-1.314-6.145,0.437-8.76l41.983-62.804l5.542-7.196
			L295.2,128H256c-4.713,0-8.533-3.821-8.533-8.533c0-4.713,3.821-8.533,8.533-8.533h42.667c2.225,0.002,4.362,0.87,5.958,2.421
			l42.7,41.675c3.073,3.029,3.402,7.875,0.767,11.292l-9.817,12.717l-41.65,62.333C295.044,243.745,292.378,245.169,289.525,245.162
			z"/>
		<path d="M256.683,238.933H256c-3.232,0-6.187-1.826-7.633-4.717l-34.133-68.267c-1.301-2.611-1.182-5.705,0.317-8.208l25.6-42.667
			c1.569-2.614,4.413-4.192,7.462-4.141c3.048,0.052,5.837,1.726,7.317,4.392c1.479,2.666,1.424,5.918-0.145,8.532l-23.192,38.65
			l31.292,62.571c2.091,2.471,2.58,5.923,1.258,8.877S259.919,238.846,256.683,238.933z"/>
		<path d="M256,238.933c-4.781,0.027-8.714-3.755-8.875-8.533c-0.024-2.258,0.827-4.439,2.375-6.083l30.908-61.808l-23.192-38.65
			c-2.425-4.041-1.116-9.283,2.925-11.708s9.283-1.116,11.708,2.925l25.6,42.667c1.499,2.503,1.618,5.597,0.317,8.208
			l-34.133,68.267C262.187,237.107,259.232,238.933,256,238.933z"/>
		<path d="M340.567,170.666H171.433c-4.713,0-8.533-3.821-8.533-8.533c0-4.713,3.821-8.533,8.533-8.533h169.133
			c4.713,0,8.533,3.821,8.533,8.533C349.1,166.846,345.279,170.666,340.567,170.666z"/>
	</g>
</g>
<g>
</g>
<g>
</g>
<g>
</g>
<g>
</g>
<g>
</g>
<g>
</g>
<g>
</g>
<g>
</g>
<g>
</g>
<g>
</g>
<g>
</g>
<g>
</g>
<g>
</g>
<g>
</g>
<g>
</g>
</svg>
